<?xml version="1.0" encoding="UTF-8"?>
<svg id="Layer_1" xmlns="http://www.w3.org/2000/svg" version="1.1" viewBox="0 0 206.3 65.1">
  <!-- Generator: Adobe Illustrator 29.0.1, SVG Export Plug-In . SVG Version: 2.1.0 Build 192)  -->
  <defs>
    <style>
      .st0, .st1 {
        fill: #5e002b;
      }

      .st1 {
        fill-rule: evenodd;
      }
    </style>
  </defs>
  <path class="st1" d="M3.1,2.1h29v2.5H5.7v55.5h26.4v2.5H3.1V2.1Z"/>
  <path class="st1" d="M8.2,7.2v23.9h23.9V7.2H8.2ZM27.1,25.9c0,0-1.7,1.9-7.2,1.9-4.5.2-8.3-3.2-8.5-7.7v-.7c0-5,3.6-9.1,8.7-9.1s5.8,1.9,6.5,1.9.3-.2.6-.2.3.4.3,2,0,1.2,0,1.6,0,.5-.2.5-.5-.6-.6-.8c-1.5-2.6-3.2-4.2-6.3-4.2-4.7,0-7,3.1-7,7.7s2.4,8.5,7,8.5,6.1-2.4,6.5-3.6c0-.2.2-.3.3-.3s.2.2.2.3c0,0-.4,2.2-.4,2.2ZM8.2,33.6v23.9h23.9v-23.9H8.2ZM28.8,53.6c-.4,0-1.2,0-2.1,0s-1.4,0-2,0-.2,0-.2-.2c0-.7,1.4-.2,1.4-1.8l-.2-8.7c0-.6,0-.9-.2-.9s-.3.2-.6.7l-4.8,9.4c0,.2-.5,1.1-.7,1.1s-.3-.4-.4-.6l-4.8-10c0-.3-.2-.3-.2-.3,0,0-.2,0-.2.3l-.2,8c-.1,2.9,2,2,2,2.8s-.2.2-.6.2-1.3,0-2,0c-1.2,0-1.5,0-1.9,0s-.2,0-.2-.3c0-.8,1.4.2,1.6-2.2.3-3.7.5-6.1.5-8.5,0-5.3-2.1-4-2.1-4.8s.2-.2.4-.2c.4,0,.8,0,1.2,0s.8,0,1.2,0,.4.4.5.6l5.3,11.4c.2.5.3.7.5.7s.3-.5.7-1.2l5.3-10.8c0-.2.3-.8.6-.8s.9,0,1,0c.5,0,.7,0,1.1,0s.2,0,.2.3c0,.7-1.8-.2-1.7,2.4l.3,11.2c0,1.8,1.8,1.1,1.8,1.8s-.3.4-.5.4Z"/>
  <path class="st0" d="M48,17.5q0,.9,1,.9h3c2.9,0,2.1-2.2,2.8-2.2s.3.3.3.5c0,1,0,1.9,0,2.8s0,1.4,0,2.2,0,.4-.3.4c-.9,0,0-2.5-2.2-2.5h-4.1c-.4,0-.5.3-.5.9v5.9c0,1.1,0,1.6,2.1,1.6,6.4,0,7.3-2.9,7.7-2.9s.2.3.2.3c0,1-.6,2-1.4,2.7-.7.8-1.7,1.1-2.7.9-2.1,0-4.2,0-6.3,0s-2.3,0-3.4,0-.4,0-.4-.3.3-.3,1.2-.7c.7-.3.8-1.1.8-2.4v-12.7c0-1.2,0-2.6-1.5-2.8-.2,0-.8-.1-.8-.4s.2-.3,1-.3c5.2,0,6.7.1,7.8.1s3.1-.1,4-.1.3.3.3.6c0,3.1-.4,3.3-.6,3.3-.7,0-.2-1.3-.7-2s-2.2-.8-3.6-.8h-1.9c-1.9,0-1.9.1-1.9,1.8,0,0,0,5.2,0,5.2ZM63.7,25.9v.7c0,1,0,1.5,2,1.5,6,0,6.9-2.7,7.2-2.7s.2.3.2.3c0,1-.6,1.9-1.3,2.5-.6.7-1.6,1.1-2.6.9-2,0-4,0-6,0s-2.1,0-3.2,0-.4,0-.4-.3.3-.3,1.1-.7.7-1.1.7-2.3v-13.2c0-1.4-2.2-1.2-2.2-1.7s.2-.3.5-.3c.6,0,1.4.1,2.6.1s2.1-.1,2.5-.1.5,0,.5.4c0,.6-1.9,0-1.9,2.2,0,0,.3,12.7.3,12.7ZM92,9.1c5.2,0,6.7,2.2,7.5,2.2s.4-.3.7-.3.3.5.4,2.2c0,.8,0,1.4,0,1.9s0,.5-.3.5-.5-.7-.6-.9c-1.7-3-3.7-4.8-7.3-4.8-5.4,0-8,3.6-8,8.8s2.8,9.8,8.1,9.8,7.1-2.8,7.5-4.1c0-.2.2-.3.4-.4.2,0,.3,0,.3.3l-.6,2.8c0,0-2,2.2-8.2,2.2-5.1.2-9.5-3.7-9.8-8.9v-.9c-.2-5.7,3.9-10.4,9.8-10.4ZM102.7,19.7c0-5.1,4-9.4,9.2-9.4h.4c5-.2,9.2,3.8,9.4,8.8v.5c0,5.9-4,9.7-9.9,9.7s-9.1-4-9.1-9.6ZM104.6,18.9c0,4.9,3.2,9.6,8.3,9.6s6.9-3.1,6.9-8-3.2-9.5-8.3-9.5c-4.4.1-6.9,3.8-6.9,7.9ZM127.7,25.9v.7c0,1,.1,1.5,2,1.5,6,0,6.9-2.7,7.2-2.7s.2.3.2.3c-.1,1-.6,1.9-1.3,2.5-.6.7-1.6,1.1-2.6.9-2,0-4,0-5.9,0s-2.1,0-3.2,0-.4,0-.4-.3.3-.3,1.1-.7c.7-.3.7-1.1.7-2.3v-13.2c0-1.4-2.2-1.2-2.2-1.7s.2-.3.5-.3c.5,0,1.4.1,2.6.1s2.1-.1,2.5-.1.5,0,.5.4c0,.6-1.9,0-1.9,2.2l.2,12.7h0ZM142.9,18.2q0,.9,1,.9h2.8c2.7,0,2-2.1,2.6-2.1s.3.3.3.5c0,.9-.1,1.8-.1,2.7s.1,1.3.1,2-.1.4-.3.4c-.8,0,.1-2.3-2.1-2.3h-3.9c-.4,0-.5.3-.5.8v5.5c0,1,.1,1.5,2,1.5,6,0,6.9-2.7,7.2-2.7s.2.3.2.3c-.1,1-.6,1.9-1.3,2.5-.6.7-1.6,1.1-2.6.9-2,0-4,0-5.9,0s-2.1,0-3.2,0-.4,0-.4-.3.3-.3,1.1-.7c.7-.3.7-1.1.7-2.3v-12c0-1.2,0-2.5-1.4-2.7-.2,0-.8-.1-.8-.4s.1-.3.9-.3c4.9,0,6.3.1,7.4.1s2.9-.1,3.7-.1.3.3.3.6c0,2.9-.4,3.1-.5,3.1-.6,0-.2-1.2-.6-1.9s-2.1-.8-3.3-.8h-1.8c-1.8,0-1.8.1-1.8,1.7l.2,5.1h0ZM171.9,19.3c.5,0,.7,0,.7.2,0,.6-1.3,0-1.3,1.7v5.4c-2.7.8-3.4,2.7-8,2.7s-9.3-3.6-9.3-9.4c-.1-5.2,3.9-9.5,9.1-9.6h.7c4.5,0,5.8,1.8,6.5,1.8s.4-.5.7-.5.3.3.3.6l.3,3.5c0,.2,0,.5-.3.5-.7,0-1.9-5.1-8-5.1s-7,4-7,8.3,2.6,9.1,7.7,9.1,5.4-1.2,5.4-3.4v-4.1c0-1.3-2.3-.7-2.3-1.4s.4-.3.6-.3h4.2ZM177.4,12.8c0-1.9-2.1-1.4-2.1-2s.1-.3.3-.3c1,0,1.9.1,2.9.1s1.6-.1,2.4-.1.5,0,.5.3c0,.6-1.9,0-1.9,2v14.1c0,1.8,2.3,1.2,2.3,2s-.1.3-.5.3c-.6,0-1.7,0-2.8,0-1.6,0-2.1,0-2.5,0s-.6,0-.6-.4c0-.8,2,0,2-2.5v-13.5h0ZM184.1,19.7c-.1-5.1,4-9.4,9.2-9.4h.4c5-.2,9.2,3.7,9.4,8.8v.6c0,5.9-4,9.7-9.9,9.7-5.6,0-9.1-4.1-9.1-9.7h0ZM186,18.9c0,4.9,3.2,9.6,8.3,9.6s6.9-3.1,6.9-8-3.2-9.5-8.3-9.5c-4.4.1-6.9,3.8-6.9,7.9ZM45.9,40.6c0-2.7-2.2-1.9-2.2-2.6s.2-.3.4-.3c.8,0,1.6,0,2.4,0,1.7,0,3.5,0,5.7,0,4.7,0,9.3,3.6,9.3,8.5s-2.9,10.4-10.2,10.4-2.7,0-4,0h-3c-.2.2-.2,0-.2,0,0-.6,1.9,0,1.9-2.5v-13.3ZM48,52.8v.8c0,.4,0,.8.2,1.1.9.9,2.9,1.2,4.1,1.2,3.7,0,7.3-2,7.3-8.2s-3.9-9.3-8.9-9.3-2.6.4-2.6,1.7c0,0,0,12.7,0,12.7ZM67.4,45.6q0,.9,1,.9h2.8c2.8,0,2-2.1,2.7-2.1s.3.3.3.5v4.8c0,.2,0,.4-.3.4-.8,0,0-2.3-2.1-2.3h-3.9c-.4,0-.5.3-.5.8v5.6c0,1.1,0,1.5,2,1.5,6.1,0,7-2.8,7.3-2.8s.2.3.2.3c0,1-.6,1.9-1.3,2.6-.6.7-1.6,1.1-2.6.9-2,0-4,0-6,0s-2.2,0-3.2,0-.4,0-.4-.3.3-.3,1.2-.7.7-1.1.7-2.3v-12.2c0-1.2,0-2.5-1.4-2.7-.2,0-.8,0-.8-.4s.2-.3.9-.3c5,0,6.4,0,7.5,0s3,0,3.8,0,.3.3.3.6c0,3-.4,3.2-.5,3.2-.6,0-.2-1.3-.6-1.9s-2.1-.8-3.4-.8h-1.8c-1.8,0-1.8,0-1.8,1.7,0,0,0,5,0,5ZM110.4,53.9c0,2.5,2.3,1.4,2.3,2.5s-.4.3-.7.3c-.6,0-1.6,0-2.8,0s-1.9,0-2.6,0-.3-.2-.3-.3c0-.9,1.9-.2,1.8-2.5l-.3-11.6c0-.7-.2-1.2-.3-1.2s-.5.3-.8.9l-6.1,12.6c0,.3-.6,1.5-.9,1.5s-.5-.7-.6-.9l-6.3-13.3c0-.2-.2-.3-.3-.3s-.2.2-.2.4l-.4,10.6c0,3.9,2.7,2.7,2.7,3.7s-.3.3-.7.3h-2.6c-1.5,0-2,0-2.6,0s-.3-.2-.3-.3c0-1,1.9.2,2.1-2.9.3-4.9.7-8,.7-11.2,0-7-2.8-5.3-2.8-6.4s.2-.3.5-.3c.5,0,1.1,0,1.6,0s1.1,0,1.6,0,.5.5.6.8l7,15.2c.3.7.4.9.7.9s.4-.7.9-1.6l7.1-14.3c.2-.3.4-1,.8-1s1.2,0,1.4,0c.7,0,.9,0,1.4,0s.3.2.3.4c0,.9-2.3-.3-2.2,3.2l.3,14.7h0ZM119.7,45q0,1,1.1,1h3c2.9,0,2.1-2.2,2.8-2.2s.3.3.3.5c0,1-.1,1.9-.1,2.8s.1,1.4.1,2.2-.1.4-.3.4c-.9,0,.1-2.5-2.2-2.5h-4.1c-.4,0-.5.3-.5.9v5.9c0,1.1.1,1.6,2.1,1.6,6.4,0,7.4-2.9,7.7-2.9s.2.3.2.3c-.1,1-.6,2-1.4,2.7-.7.8-1.7,1.2-2.7,1-2.1,0-4.2,0-6.3,0s-2.3,0-3.4,0-.4,0-.4-.3.3-.3,1.2-.7c.7-.3.8-1.2.8-2.4v-12.9c0-1.3,0-2.6-1.5-2.8-.2,0-.8,0-.8-.5s.2-.3,1-.3c5.2,0,6.7,0,7.9,0s3.1,0,4,0,.3.3.3.6c0,3.1-.4,3.3-.6,3.3-.7,0-.2-1.3-.7-2s-2.2-.8-3.6-.8h-1.9c-1.9,0-1.9,0-1.9,1.8v5.3q-.1,0-.1,0ZM121.5,35.7l2.8-2.8c.2-.3.5-.5.9-.5s.7.4.7.8-.8.9-1.2,1.1l-2.4,1.3s-.8,0-.8.1ZM140.3,43.8c.4.6.6,1,.7,1s.4-.4.8-1.1l2.5-3.6c.4-.5.7-1.2.9-1.8,0-.8-1.5-.6-1.5-1.2s.2-.2.4-.2c.7,0,.7,0,2.6,0s1.4,0,2.1,0c.2,0,.2.2.2.3,0,.6-1.1,0-2.7,2.2l-4.2,6c-.1,0-.2.3-.2.5.1.3.2.5.3.7l4.8,7.7c1.5,2.3,2.5,1.2,2.5,2.1s-.3.3-.5.3c-.4,0-1.4,0-2.5,0s-2.1,0-2.5,0-.4,0-.4-.3c0-.6,1.2-.5,1.2-1.2s-.1-.6-.6-1.4l-3.5-5.5c-.1,0-.2-.3-.3-.3s-.2,0-.4.3l-3,4.6c-.6.7-1,1.4-1.2,2.2,0,1,1.8.6,1.8,1.3s-.2.3-.4.3c-.7,0-1.5,0-2.7,0s-1.6,0-2.4,0-.3,0-.3-.2c0-.6,1.6-.4,2.6-1.7l5.1-7.4c.1,0,.2-.3.3-.5,0-.2-.1-.4-.3-.6l-4.4-6.5c-2.1-3.1-3.4-1.9-3.4-2.6s.1-.3.3-.3c.6,0,.6,0,3.1,0s1.8,0,2.6,0,.5,0,.5.4-1.2.2-1.2,1.1.4.9,1.4,2.5l1.9,2.9h0ZM154.9,39.2c0-2.1-2.2-1.5-2.2-2.1s0-.3.3-.3c1,0,2,0,3.1,0s1.7,0,2.6,0,.5,0,.5.3c0,.7-2,0-2,2.1v15.1c0,1.9,2.5,1.3,2.5,2.1s-.1.3-.6.3-1.8,0-3,0c-1.7,0-2.3,0-2.7,0s-.6,0-.6-.4c0-.8,2.2,0,2.2-2.7v-14.4ZM172.1,36.5c5.2,0,6.7,2.2,7.5,2.2s.4-.3.7-.3.3.4.4,2.2c0,.8.1,1.5.1,1.9s-.1.6-.3.6-.5-.7-.6-.9c-1.7-3-3.7-4.9-7.3-4.9-5.4,0-8,3.6-8,8.9s2.8,9.8,8.1,9.8,7.1-2.8,7.5-4.1c0-.2.2-.3.4-.4.1,0,.2.2.2.3l-.7,2.8c0,0-2,2.2-8.3,2.2-5.2.2-9.5-3.8-9.7-8.9v-.8c0-5.8,4.1-10.6,10-10.6ZM182.9,46.6c-.1-5.5,4.3-10,9.8-10.1h.5c5.4-.2,9.8,4,10,9.4v.5c0,6.3-4.3,10.4-10.5,10.4-6.1,0-9.8-4.2-9.8-10.2ZM184.9,45.8c0,5.2,3.4,10.2,8.9,10.2s7.3-3.3,7.3-8.5-3.4-10.1-8.8-10.1c-4.7,0-7.4,4-7.4,8.4Z"/>
</svg>